<?xml version="1.0" encoding="UTF-8" standalone="no"?>
<svg xmlns="http://www.w3.org/2000/svg" height="256" width="600" version="1.1" viewBox="0 0 158.75 67.733335">
 <path d="m59.8 63.24c-4.084-1.172-8.823-2.403-12.52-3.635-3.441-1.165-3.24-1.149-13.84-1.06-5.113 0.0429-9.829 0.1118-10.48 0.1531-2.34 0.1488-6.613 0.1717-8.449 0.0453-1.747-0.1203-1.909-0.1547-2.408-0.5133-0.4723-0.3393-0.6107-0.5783-1.18-2.038-1.288-3.301-1.416-4.024-1.325-7.473l0.06179-2.341 0.5153-0.9732c0.5652-1.067 11.09-14.28 11.06-14.53-0.02631-0.1979-0.3006-0.343-1.171-0.6196-3.186-1.012-4.645-1.463-4.731-1.463-0.05277 0-0.6501-0.2011-1.327-0.4468-0.6773-0.2458-1.669-0.5839-2.203-0.7514-1.609-0.5044-1.88-0.8757-1.908-2.614-0.018-1.136 0.00188-5.478 0.09708-6.956 0.2101-3.261 0.2813-3.531 1.476-3.823 9.907-0.7979 20.54-0.3429 30.6-0.3653 0 0 17.86-6.981 18.53-6.981 0.308 0 1.242 0.2128 2.075 0.4729 1.486 0.4639 1.518 0.4822 1.677 0.9651 0.1151 0.3489 0.1389 1.118 0.08175 2.639-0.0448 1.191-0.02745 2.233 0.03898 2.341 0.09586 0.1551 0.8348 0.2225 3.71 0.3386l3.591 0.1449 0.5491 0.3953c0.302 0.2174 1.273 0.9219 2.158 1.566 0.8849 0.6437 1.703 1.206 1.818 1.25 0.128 0.0491 0.7145-0.2527 1.516-0.7804 3.547-2.334 3.718-2.431 4.585-2.586 0.7297-0.1309 0.349-0.1226 10.9-0.2371 8.736-0.0948 10.71-0.16 10.84-0.357 0.0378-0.0613 0.1294-0.4306 0.2034-0.8207 0.1014-0.5344 0.2574-0.8352 0.6332-1.22 0.4465-0.4573 0.8245-0.6991 2.774-1.775 0.2943-0.1624 0.9564-0.5354 1.471-0.8287 0.8377-0.4772 3.269-1.765 5.484-2.904 0.4414-0.2271 0.9576-0.5173 1.147-0.6449 0.4343-0.2926 2.314-0.4477 5.876-0.4847 3.28-0.03413 5.575 0.157 6.295 0.5242 0.29 0.1479 0.6928 0.519 0.8952 0.8247l0.368 0.5557 0.0729 4.558c0.0401 2.507 0.0853 4.573 0.1003 4.592 0.1042 0.1271 0.6099-0.0414 1.549-0.516 0.5978-0.3022 1.569-0.761 2.157-1.02l1.07-0.4702 3.545-0.0171c3.547-0.0171 8.665 0.1247 9.728 0.2695 0.6646 0.0906 1.241 0.5666 1.241 1.025 0 0.3964-1.272 2.976-2.783 5.644-1.064 1.878-2.568 4.762-2.568 4.923 0 0.0396-0.323 0.6336-0.7177 1.32-0.3948 0.6864-1.122 2.03-1.616 2.987-1.1 2.129-1.103 2.282-0.101 4.816 0.3783 0.9564 1.195 3.033 1.815 4.615 1.811 4.621 2.044 5.205 2.701 6.755 0.343 0.8093 0.9088 2.194 1.257 3.077 0.3485 0.8829 0.8601 2.147 1.137 2.809 0.9625 2.302 1.299 3.405 1.295 4.246-0.005 1.149-0.4536 1.712-1.586 1.992-1.511 0.3733-11.99 0.6528-14.12 0.3768-0.4983-0.0645-1.506-0.3025-2.24-0.5289-1.312-0.405-1.344-0.4081-1.97-0.194-0.9923 0.3396-2.507 0.4485-8.168 0.5873-5.111 0.1253-5.283 0.1213-6.143-0.1444-0.8746-0.2702-0.9017-0.2705-2.3-0.0301-1.186 0.204-2.17 0.2429-6.097 0.2407l-4.682-0.003-1.672-0.44c-0.9197-0.242-2.49-0.6757-3.491-0.9639-1-0.2881-1.857-0.5239-1.905-0.5239-0.04737 0-0.2344 0.2349-0.4157 0.522-0.2212 0.3505-0.5649 0.6372-1.046 0.8724-0.6548 0.3204-0.9392 0.3625-3.317 0.4914-1.44 0.0781-3.915 0.1022-5.544 0.0543-2.906-0.0856-2.958-0.0923-4.147-0.532-0.6621-0.2449-1.89-0.7823-2.729-1.194-0.8386-0.4119-1.707-0.7489-1.93-0.7489-0.266 0-2.895 1.64-3.3 1.901l-0.7357 0.4752s-7.182 0.1533-7.344 0.2878c-0.1585 0.1315-0.2151 0.4246-0.2186 1.131-0.0052 1.077-0.2881 2.842-0.5269 3.288-0.08733 0.1632-0.3627 0.3819-0.6119 0.486-0.5656 0.2363-2.319 0.2341-3.137-0.004zm2.6-1.269c0.4817-0.5028 0.5976-1.127 0.6049-3.256l0.0058-1.708 0.3679 0.1029c0.2023 0.0566 1.683 0.0901 3.29 0.0745 2.864-0.0279 2.934-0.0353 3.502-0.3682 0.5537-0.3245 0.5834-0.3283 0.6608-0.0843 0.2153 0.6784 0.6126 0.4899 3.286-1.559 0.888-0.6806 1.667-1.237 1.732-1.237 0.06458 0 0.1367 0.1354 0.1602 0.301 0.03438 0.2419 0.4363 0.4942 2.049 1.286 2.208 1.084 3.055 1.304 3.373 0.8737 0.1816-0.2458 0.192-0.246 0.3273-0.007 0.3068 0.5416 0.972 0.6648 3.925 0.7268 1.545 0.0325 3.724-0.004 4.843-0.0827 2.649-0.1845 3.116-0.4158 3.116-1.543 0-0.258 0.04793-0.4987 0.1065-0.5349s0.4424 0.045 0.8529 0.1804 1.932 0.5634 3.38 0.9512c2.449 0.6556 2.668 0.6926 3.121 0.5289 0.362-0.1309 0.5001-0.1363 0.5385-0.02101 0.1761 0.5284 2.013 0.6612 8.082 0.5842l2.637-0.0334 0.4647-0.408 0.4646-0.408 1.156 0.408c1.313 0.4634 1.62 0.4946 1.947 0.1981 0.1939-0.1755 0.3163-0.1845 0.7477-0.0553 0.3623 0.1086 1.988 0.1411 5.464 0.1095 5.296-0.0482 5.319-0.0511 5.907-0.7488l0.2903-0.3441 1.582 0.4985c0.8703 0.2742 1.721 0.5551 1.89 0.6242 0.5595 0.229 1.075 0.1503 1.304-0.1989l0.2127-0.3246 0.4866 0.2871c0.4132 0.2438 0.75 0.2955 2.232 0.3425 2.254 0.0716 10.18-0.2236 10.74-0.4003 0.8866-0.2769 1.047-1.023 0.5201-2.42-0.5798-1.538-1.727-3.849-1.91-3.849-0.1161 0-0.181-0.1604-0.181-0.4472 0-0.246-0.1126-0.7727-0.2502-1.17-0.5008-1.448-1.771-4.334-2.028-4.607-0.151-0.1608-0.2634-0.4668-0.2634-0.7172 0-0.4642-0.1621-0.9078-1.643-4.495-0.96-2.326-1.194-2.742-1.538-2.742-0.1441 0-0.1766-0.1002-0.1216-0.3749 0.0488-0.2436-0.086-0.837-0.3846-1.694-0.5474-1.572-0.57-2.161-0.1252-3.256 0.1839-0.4527 0.3344-1.005 0.3344-1.227 0-0.2222 0.1159-0.5199 0.2576-0.6616 0.3102-0.3102 2.515-3.998 2.729-4.565 0.1156-0.3063 0.1119-0.4633-0.0155-0.6675-0.1453-0.2327-0.1278-0.2819 0.1368-0.3831 0.4562-0.1744 0.6637-0.4626 1.647-2.287 0.6956-1.291 0.9046-1.806 0.9159-2.259 0.0115-0.4616 0.0731-0.6083 0.289-0.6881 0.3999-0.1479 1.584-2.578 1.473-3.022-0.1783-0.7105-0.5468-0.7536-6.588-0.7709l-5.51-0.0158-0.4554 0.4405c-0.4009 0.3878-0.4759 0.4158-0.6267 0.2341-0.0942-0.1135-0.2608-0.2064-0.3703-0.2064-0.1094 0-1.201 0.4572-2.425 1.016-1.224 0.5587-2.301 1.047-2.393 1.084-0.1255 0.0515-0.1672-0.1964-0.1672-0.9936 0-0.5842-0.0324-1.095-0.0721-1.134-0.0397-0.0397-0.0853-1.81-0.1012-3.935-0.0324-4.295-0.0696-4.493-0.9325-4.964-0.3909-0.2136-0.8975-0.2364-5.27-0.2364-4.747 0-4.845 0.0054-5.229 0.2889-0.2637 0.1948-0.4526 0.2499-0.5801 0.1693-0.4934-0.3123-0.5184-0.3014-5.941 2.61-5.163 2.772-5.058 2.681-5.098 4.433-0.0162 0.7025-0.0949 1.209-0.2147 1.38-0.1797 0.2565-0.222 0.2603-0.8372 0.0752-0.5281-0.159-1.816-0.195-6.963-0.195-6.158 0-6.323 0.007-6.662 0.2735-0.3235 0.2544-0.3753 0.2592-0.7446 0.0682-0.3131-0.1619-0.9709-0.2106-3.115-0.2305-4.64-0.0431-4.772-0.0335-4.952 0.362-0.127 0.2788-0.1151 0.3788 0.0666 0.5606 0.183 0.183 0.5514 0.2248 2.131 0.2417 5.228 0.056 4.902 0.0325 5.248 0.3793 0.331 0.331 0.3717 0.4481 1.949 5.609 0.6991 2.288 0.932 3.224 0.8278 3.329-0.1486 0.1486-1.423-0.0872-6.249-1.157-2.893-0.6411-3.245-0.7411-3.442-0.9787-0.1264-0.1524-0.1698-0.9946-0.1698-3.294 0-2.666-0.03145-3.147-0.2294-3.508-0.3022-0.5521-0.7673-0.6592-1.481-0.3413-0.7601 0.3384-3.61 2.267-3.76 2.545-0.06603 0.1222-0.1377 0.2436-0.1592 0.2698-0.02154 0.0262-0.6297-0.4578-1.351-1.076-2.903-2.486-3.243-2.698-4.551-2.848-0.6358-0.0729-0.9294-0.046-1.252 0.1149-0.3378 0.1685-0.4779 0.1786-0.7077 0.0508-0.1809-0.1006-1.184-0.1788-2.722-0.2122l-2.436-0.0529 0.02811-2.704c0.0359-3.452 0.0404-3.442-1.694-3.83-0.6999-0.1566-0.8215-0.1497-1.229 0.07002-0.363 0.1955-0.492 0.2113-0.6504 0.0798-0.2348-0.1949-0.3376-0.1683-2.381 0.6145-1.073 0.411-1.666 0.7172-1.878 0.9688-0.256 0.3042-0.3927 0.3582-0.7897 0.3119-0.3398-0.03969-0.8466 0.09021-1.734 0.4444-1.364 0.5445-2.059 0.9856-2.187 1.388-0.0763 0.2404-0.1066 0.244-0.4438 0.05242-0.3433-0.195-0.436-0.1763-1.805 0.3642-0.9613 0.3796-1.548 0.695-1.759 0.9448-0.266 0.3161-0.3875 0.3633-0.7741 0.3006-0.3407-0.0553-0.7951 0.058-1.768 0.4409-1.275 0.5016-1.725 0.7956-2.028 1.326-0.1255 0.2191-0.18 0.2312-0.3618 0.0804-0.2806-0.2328-9.144-0.3682-9.806-0.1497-0.7658 0.2528-0.6899 0.9841 0.1177 1.134 3.5 0.0909 6.173 0.0303 9.871-0.002l-0.03711 1.806-0.03706 1.806c-3.555 0.02663-7.111 0.05337-10.67 0.0801l0.1102-0.3744c0.06061-0.2059 0.1007-1.057 0.08919-1.892-0.01953-1.41-0.04551-1.55-0.3676-1.972-0.1906-0.2499-0.5094-0.5-0.7084-0.5558s-2.417-0.1014-4.929-0.1014c-4.281 0-4.585 0.0158-4.845 0.2512-0.2617 0.2368-0.304 0.2387-0.7366 0.0334-0.3893-0.1847-1.014-0.2178-4.117-0.2176-5.029 0.000291-4.969-0.0364-5.033 3.076-0.04164 2.046 0.04496 2.348 0.7735 2.701 0.4256 0.2058 1.733 0.2341 14.71 0.3184 7.835 0.0509 14.58 0.0997 14.98 0.1085l0.7357 0.016-0.0177 1.003c-0.0097 0.5518-0.02477 1.388-0.03342 1.858l-0.01577 0.8542-0.6354-0.0887c-9.675-0.1208-18.9-0.02001-29.26-0.01467l-0.06688-1.766c-0.06848-1.809-0.1611-2.112-0.6178-2.024-0.4928 0.0949-0.6025 0.6049-0.5502 2.559 0.04793 1.791 0.05986 1.856 0.4066 2.203 0.3045 0.3044 0.4958 0.3651 1.295 0.4102 0.8696 0.0491 0.9378 0.075 0.9378 0.3559 0 0.1666 0.07557 0.3657 0.1679 0.4423 0.1695 0.1407 3.39 1.119 7.168 2.178 2.241 0.628 2.464 0.6188 2.537-0.105 0.0337-0.3348-0.02231-0.426-0.3344-0.5446-0.5674-0.2157-4.966-1.453-6.264-1.762-0.2962-0.0705-0.7476-0.2189-1.003-0.3298-0.4363-0.1893-0.3053-0.2027 2.144-0.2202 1.435-0.0102 3.662-0.0447 4.949-0.0765 1.288-0.0318 2.541-0.0221 2.787 0.0215 0.5213 0.0928 0.5959-0.0539-0.9267 1.821-1.585 1.952-1.86 2.377-1.86 2.877 0 0.4072-0.03608 0.4481-0.3953 0.4481-0.3351 0-0.5171 0.1579-1.195 1.037-0.4399 0.5702-1.289 1.639-1.886 2.374-1.43 1.76-1.874 2.444-1.874 2.88 0 0.3113-0.0449 0.3512-0.3333 0.2961-0.6161-0.1178-1.776 1.483-1.608 2.218 0.1235 0.5397 0.4492 0.8604 1.617 1.592 1.48 0.9276 2.134 1.244 2.492 1.206 0.2299-0.02471 0.3178 0.0436 0.3506 0.2726 0.05021 0.3505 0.5629 0.7015 2.412 1.651 0.8605 0.4421 1.431 0.6515 1.775 0.6515 0.6515 0 0.5221 0.1253 4.583-4.44 0.9555-1.074 1.153-1.372 1.153-1.74 0-0.4004 0.06315-0.4723 0.6521-0.7425 0.516-0.2367 0.9855-0.6832 2.25-2.14 2.357-2.716 2.893-3.441 2.88-3.901-0.0098-0.3438 0.0752-0.4338 0.6974-0.7382 0.5534-0.2708 1.155-0.8291 2.746-2.551 1.121-1.212 2.22-2.431 2.443-2.708l0.4055-0.5038-0.08344 4.435c-0.08069 4.29-0.1226 4.861-0.3561 4.861-0.2629 0-1.013 0.8036-2.285 2.447-1.487 1.922-2.431 3.055-3.262 3.919-0.5895 0.6118-1.186 0.833-4.64 1.72-2.226 0.5715-4.724 1.245-5.282 1.424-0.2814 0.0902-0.4684 0.2633-0.556 0.5144l-0.1319 0.3784-6.366 0.0995c-6.397 0.0999-6.768 0.0811-6.768-0.3444 0-0.1049 1.431-1.9 2.749-3.449 0.6332-0.744 0.7197-1.143 0.3043-1.403-0.4018-0.2518-0.8517 0.1139-2.178 1.77-2.07 2.585-2.255 2.9-2.174 3.696 0.04687 0.459 0.0091 0.753-0.1192 0.9285-0.1412 0.193-0.1878 0.7472-0.1878 2.23 0 1.885 0.01427 1.99 0.3179 2.343l0.3179 0.3696-0.2713 0.367-0.2713 0.367 0.3047 0.9095c0.4635 1.384 1.173 2.803 1.55 3.099 0.4893 0.3849 1.362 0.5319 3.755 0.6325 2.617 0.11 2.874 0.0336 3.46-1.029 0.3824-0.6937 0.3984-0.7902 0.4002-2.412l0.0018-1.69 0.7888-0.0826c0.4338-0.0455 1.758-0.0839 2.943-0.0856 1.818-0.003 2.241-0.0422 2.707-0.2541 0.4827-0.2192 0.5779-0.2265 0.7467-0.0577 0.132 0.132 0.6386 0.2187 1.594 0.2728l1.4 0.0793-0.01617 1.805c-0.01432 1.598-0.04488 1.826-0.2664 1.988-0.2005 0.1466-1.186 0.183-4.957 0.183-5.069 0-5.083 0.0021-4.984 0.6916 0.08661 0.6043 0.4027 0.642 5.4 0.6441 4.387 0.0021 4.72-0.01471 5.199-0.2592 0.4478-0.2283 0.5368-0.2367 0.7065-0.067 0.1068 0.1068 0.3304 0.2283 0.4969 0.2701s2.328 0.0569 4.803 0.0336c4.386-0.0413 4.507-0.0495 4.785-0.3276 0.3612-0.3614 0.248-0.7876-0.25-0.941-0.1993-0.0614-2.448-0.0814-4.998-0.0447l-4.635 0.067 0.03578-2.007 0.03578-2.007 2.192-0.0669c1.653-0.0504 2.286-0.119 2.574-0.279 0.3547-0.1967 0.4182-0.1938 0.8695 0.0393 0.4173 0.2155 0.7543 0.2476 2.36 0.2245l1.873-0.0269 0.07046 1.931c0.08758 2.4 0.2214 2.704 1.393 3.172 1.138 0.4541 2.173 0.6508 2.455 0.4664 0.1822-0.1189 0.2958-0.0852 0.5658 0.168 0.3211 0.3011 1.441 0.7807 2.846 1.218 0.5698 0.1776 0.675 0.1776 0.9364-0.000129 0.2738-0.1861 0.3241-0.1719 0.7165 0.2026 0.4685 0.4472 2.343 1.135 3.457 1.269 0.3679 0.0441 0.8797 0.1858 1.137 0.3147 0.8262 0.4134 3.209 1.095 3.538 1.012 0.1725-0.0433 0.5154 0.009 0.7618 0.1159 0.2468 0.1072 0.8726 0.197 1.393 0.1998 0.8735 0.005 0.9731-0.02429 1.321-0.387zm-1.918-0.9349c-0.1614-0.1022-0.1638-1.399-0.01709-9.128 0.1195-6.295 0.1291-9.16 0.03175-9.51l-0.1393-0.5016h0.8743c0.8418 0 0.8713 0.01119 0.7923 0.301-0.0451 0.1656-0.121 4.364-0.1687 9.33-0.04773 4.966-0.1368 9.165-0.1979 9.33-0.08452 0.2289-0.2159 0.3005-0.5492 0.2989-0.2409-0.000794-0.5227-0.0557-0.6262-0.1212zm-3.022-0.4894c-0.7357-0.2522-1.413-0.5601-1.505-0.6843-0.1191-0.1607-0.1672-0.9117-0.1672-2.608v-2.382h0.387c0.2128 0 0.8418 0.0941 1.398 0.209 0.7575 0.1566 1.079 0.1722 1.285 0.0622 0.2729-0.146 0.2744-0.1305 0.2744 2.868 0 2.328-0.03807 3.012-0.1672 3.004-0.09197-0.005-0.7692-0.2165-1.505-0.4687zm-4.345-1.258c-1.798-0.5444-1.768-0.4909-1.717-3.146l0.04217-2.156 0.6519 0.1028c0.3585 0.0566 1.101 0.2026 1.649 0.3247 0.9042 0.2012 0.9908 0.2485 0.9277 0.5071-0.03828 0.1569-0.08661 1.293-0.1074 2.526-0.02082 1.232-0.06953 2.237-0.1082 2.233-0.03868-0.004-0.6411-0.1804-1.339-0.3917zm-4.386-1.41c-0.6818-0.2396-1.334-0.5141-1.45-0.61-0.179-0.1485-0.2008-0.4631-0.1472-2.121 0.03509-1.087 0.1176-1.936 0.1867-1.922 0.06811 0.01371 0.6922 0.1217 1.387 0.24 1.727 0.2941 1.758 0.3056 1.603 0.5942-0.07038 0.1315-0.1456 1.151-0.1671 2.265-0.02154 1.114-0.06924 2.018-0.106 2.008-0.0368-0.01-0.6247-0.214-1.307-0.4536zm-4.274-1.383c-0.5311-0.1937-1.043-0.4304-1.137-0.526-0.1197-0.1214-0.1773-0.7065-0.1911-1.94-0.01087-0.9712 0.0045-1.806 0.03464-1.855 0.02988-0.0492 0.2193-0.007 0.421 0.093 0.2017 0.1004 0.788 0.2929 1.303 0.4278l0.9364 0.2453-0.01638 0.598c-0.009 0.3289-0.02408 1.215-0.03342 1.969-0.01254 1.008-0.06137 1.367-0.1843 1.355-0.09196-0.009-0.6017-0.1742-1.133-0.3679zm-29.5-0.1c-1.197-0.1309-1.538-0.4576-2.161-2.069-0.2592-0.6702-0.4879-1.369-0.5082-1.553-0.03684-0.3334-0.03343-0.3344 1.1-0.3344 0.8606 0 1.216-0.056 1.462-0.2303 0.2602-0.1842 0.3646-0.1976 0.5218-0.0669 0.1221 0.1016 0.8579 0.1887 1.944 0.2303l1.748 0.0669-0.03883 1.806c-0.02489 1.158-0.09525 1.862-0.1961 1.961-0.201 0.1988-2.678 0.3198-3.872 0.1892zm100.2-0.56c-0.5886-0.2077-1.206-0.3821-1.371-0.3875-0.2982-0.01-0.301-0.028-0.301-2.009 0-1.863-0.0186-2.012-0.2739-2.191-0.273-0.1912-0.2731-0.1935-0.0139-0.7099 0.372-0.7412 0.5014-3.418 0.1906-3.944-0.1984-0.3359-0.1978-0.3908 0.008-0.7048 0.3192-0.4872 0.276-1.037-0.1285-1.636-0.3183-0.471-2.072-2.617-4.098-5.015l-0.7708-0.9123 1.306-0.7621c1.971-1.15 2.274-1.521 2.946-3.603 0.7515-2.329 0.7591-2.372 0.5091-2.899-0.1958-0.4127-0.1963-0.491-0.005-0.8732 0.1782-0.3573 0.2036-0.9806 0.17-4.183-0.0361-3.447-0.0595-3.774-0.2779-3.896-0.1846-0.1032-0.2197-0.2333-0.1554-0.5762 0.115-0.613-0.1444-1.049-1.237-2.081-0.7628-0.7202-4.109-3.698-5.157-4.589-0.2727-0.232-0.2752-0.2572-0.0593-0.6226 0.1379-0.2335 0.225-0.6678 0.225-1.123 0-0.6811 0.0355-0.7683 0.4348-1.066 0.7168-0.535 8.575-4.639 8.883-4.639 0.1994 0 0.2256 0.5398 0.1886 3.879-0.0229 2.071 0.0801 2.668 0.5461 3.164 0.1615 0.1719 0.2682 0.3278 0.2373 0.3464-0.0309 0.0187-0.1767 0.1008-0.3238 0.1826-0.257 0.1428-0.2675 0.2873-0.2675 3.679 0 3.169 0.0244 3.566 0.239 3.882 0.2318 0.3413 0.2303 0.3666-0.0502 0.842-0.2731 0.4629-0.286 0.6178-0.2321 2.793 0.0484 1.955 0.0954 2.368 0.311 2.733 0.2524 0.4274 0.2522 0.4317-0.0403 0.7431-0.2848 0.3031-0.2942 0.4081-0.2942 3.263 0 2.747 0.0184 2.973 0.2675 3.29 0.1471 0.1871 0.2675 0.3813 0.2675 0.4317 0 0.0503-0.1204 0.2446-0.2675 0.4317-0.2496 0.3174-0.2675 0.5427-0.2675 3.367 0 2.695 0.0273 3.078 0.2486 3.491 0.2408 0.449 0.241 0.4742 0.004 0.8005-0.2129 0.294-0.2488 0.6725-0.2821 2.974-0.0366 2.528-0.0266 2.649 0.2432 2.92 0.2803 0.2814 0.2804 0.2844 0.024 0.774-0.2299 0.439-0.2524 0.7236-0.2104 2.665 0.0259 1.196 0.0151 2.168-0.024 2.16s-0.5526-0.1837-1.141-0.3914zm16.32-0.2857c-1.372-0.448-2.121-0.6288-2.374-0.5732l-0.3701 0.0813v-1.613c0-1.172-0.059-1.761-0.2158-2.152-0.1737-0.4342-0.1833-0.5784-0.0491-0.7401 0.1152-0.1388 0.1861-1.005 0.2297-2.805l0.063-2.605-0.3307-0.2946-0.3307-0.2946 0.247-0.5438c0.1358-0.2991 0.2483-0.7779 0.2499-1.064l0.003-0.5203 1.505 0.0685 1.505 0.0684 0.7357 0.725c0.4046 0.3987 0.8797 0.8158 1.056 0.9268 0.283 0.1785 0.3009 0.2375 0.1547 0.5106-0.1192 0.2226-0.1524 0.9926-0.1193 2.759 0.0419 2.235 0.0705 2.484 0.3255 2.828 0.4899 0.6615 0.8813 0.7647 2.864 0.7555 1.347-0.006 1.936-0.0633 2.319-0.2247 0.4539-0.1913 0.5361-0.1933 0.7118-0.0177 0.2297 0.2297 0.5826 0.251 3.355 0.2028 1.889-0.0329 2.044-0.01709 2.119 0.2143 0.0447 0.1373 0.403 0.9721 0.7962 1.855 0.8457 1.898 0.9458 2.243 0.7066 2.434-0.2587 0.2057-2.588 0.308-7.304 0.3209-3.096 0.009-4.236-0.0307-4.381-0.1506-0.1556-0.1291-0.1953-0.5764-0.1953-2.198 0-1.803-0.0281-2.062-0.2446-2.258-0.2874-0.2601-0.9427-0.2947-1.025-0.0542-0.121 0.3548-0.176 3.809-0.0697 4.381 0.0615 0.3311 0.1021 0.6088 0.0901 0.6172-0.0121 0.008-0.9238-0.2792-2.026-0.6392zm-68.44-1.21c0.0021-2.222 0.0865-2.804 0.3938-2.706 0.124 0.0393 1.636 0.0803 3.36 0.0909l3.134 0.01929-0.06688 1.849c-0.05873 1.624-0.09949 1.88-0.3344 2.104-0.2419 0.2303-0.5655 0.2622-3.378 0.3331l-3.11 0.0784 0.0016-1.768zm19.93 1.501c-0.1819-0.0765-0.3766-0.2112-0.4327-0.2995-0.05613-0.0883-0.103-0.9019-0.1041-1.808s-0.06436-1.764-0.1405-1.906c-0.1343-0.2508-0.07258-0.2588 2.02-0.2588 1.711 0 2.253-0.0448 2.614-0.2163 0.3769-0.1788 0.5587-0.1904 1.049-0.0669 0.3264 0.0822 1.534 0.1494 2.683 0.1494h2.089l-0.07091 0.5685c-0.03903 0.3127-0.1084 1.212-0.1542 1.998-0.04829 0.8282-0.156 1.529-0.2562 1.666-0.1581 0.2163-0.5467 0.2397-4.569 0.2749-2.827 0.02479-4.514-0.01109-4.727-0.1005zm19.75-0.0279c-0.2193-0.1603-0.2481-0.4114-0.2665-2.323l-0.0207-2.143 2.296 0.0104c2.194 0.01 2.314-0.003 2.713-0.2973l0.4168-0.3078 0.3487 0.2743c0.3123 0.2456 0.5365 0.2743 2.146 0.2743h1.797l-0.0425 2.196c-0.0234 1.208-0.0925 2.246-0.1538 2.308-0.0612 0.0611-2.108 0.1284-4.549 0.1496-3.552 0.0308-4.487 0.003-4.684-0.1413zm-31.62-1.83c0-1.515 0.03924-1.902 0.2102-2.073 0.1763-0.1763 0.6187-0.2102 2.742-0.2102 1.393 0 2.532 0.0236 2.532 0.0525s-0.7976 0.6446-1.772 1.368c-0.9748 0.7237-2.17 1.633-2.657 2.021-0.4864 0.3878-0.9228 0.7052-0.9698 0.7052-0.04707 0-0.08553-0.8384-0.08553-1.863zm46.98 1.755c-0.17-0.0254-0.3328-0.1167-0.3618-0.203-0.0289-0.0862-0.0704-1.113-0.0921-2.282l-0.0395-2.125 1.471 0.0768c1.693 0.0884 2.677-0.0335 2.917-0.3609 0.1535-0.2099 0.2002-0.2116 0.5649-0.02151 0.2412 0.1258 0.7447 0.2077 1.28 0.2082 0.4852 0.00053 1.524 0.0401 2.308 0.088l1.425 0.0872v1.769c0 2.114-0.0733 2.568-0.433 2.682-0.2784 0.0884-8.497 0.1631-9.039 0.0822zm-37.06-0.15c-0.06989-0.0658-1.09-0.5533-2.267-1.083-1.177-0.53-2.157-0.9799-2.179-0.9998-0.02103-0.02 0.3371-0.399 0.7958-0.8424 0.746-0.721 0.8196-0.8387 0.6966-1.114-0.1096-0.2456-0.07463-0.4181 0.1724-0.85 0.2982-0.5214 0.3099-0.6536 0.3115-3.502 0.0016-2.469-0.03165-2.988-0.199-3.126-0.1104-0.0916-0.2006-0.2235-0.2006-0.2932 0-0.1178 2.667-1.446 2.903-1.446 0.05867 0 0.1067 0.6471 0.1067 1.438 0 1.272 0.03433 1.486 0.2975 1.855 0.2912 0.4082 0.2921 0.422 0.04454 0.6461-0.5161 0.467-0.4838 4.337 0.04055 4.861 0.1855 0.1855 0.1723 0.2461-0.1329 0.6088-0.3351 0.3982-0.3381 0.4231-0.265 2.185 0.04065 0.9803 0.05772 1.782 0.03792 1.782-0.01982 0-0.09319-0.0539-0.1631-0.1197zm19.74-0.000529c-0.1104-0.0615-1.013-0.3373-2.007-0.6128-0.9932-0.2755-2.309-0.6485-2.924-0.829-0.6147-0.1805-1.307-0.3092-1.538-0.2861l-0.4206 0.0421-0.03853-1.243c-0.0359-1.158-0.05996-1.252-0.3544-1.386l-0.3159-0.144 0.2512-0.5532c0.2085-0.4591 0.2517-0.8854 0.2541-2.508 0.0024-1.755-0.02442-1.99-0.2646-2.295-0.1471-0.1871-0.2675-0.3965-0.2675-0.4655s0.1204-0.2343 0.2675-0.3675c0.2479-0.2244 0.2675-0.412 0.2675-2.561 0-2.126-0.02093-2.332-0.2519-2.476-0.2436-0.1521-0.2411-0.1774 0.07456-0.7703 0.316-0.5935 0.3251-0.6882 0.2853-2.974-0.03488-2.002-0.0759-2.399-0.27-2.613-0.2164-0.2387-0.2146-0.2741 0.03256-0.6491 0.2389-0.3624 0.2615-0.6444 0.2623-3.276 0.000529-2.388-0.03458-2.93-0.2069-3.176-0.2027-0.2894-0.1992-0.2935 0.1425-0.1635 0.4714 0.1792 4.413 0.1687 5.07-0.0135 0.4204-0.1167 0.5434-0.1086 0.6272 0.0411 0.0574 0.1025 0.4336 0.4491 0.836 0.7702l0.7318 0.5839-0.0737 1.757c-0.0526 1.254-0.0268 1.844 0.0898 2.063 0.09 0.168 0.1425 0.3266 0.1168 0.3523-0.0257 0.02569-0.7588 0.1685-1.629 0.3174-1.272 0.2177-1.713 0.3545-2.25 0.6988-0.3669 0.2355-0.7222 0.573-0.7895 0.75-0.1735 0.4562-0.1587 9.35 0.01606 9.677 0.1466 0.274 0.5998 0.3376 0.9276 0.1303 0.1672-0.1058 0.1928-0.7702 0.1712-4.446-0.01402-2.377 0.02032-4.532 0.0763-4.79 0.1179-0.5424-0.0131-0.5036 3.168-0.9389 2.033-0.2782 3.857-0.5562 7.491-1.141 1.104-0.1776 2.338-0.3391 2.742-0.3588 0.6763-0.0329 0.7392-0.0113 0.779 0.2688 0.0467 0.3297-0.5338 2.209-0.9212 2.981-0.1785 0.3559-0.5211 0.6403-1.353 1.123-0.6125 0.3554-1.685 0.9911-2.384 1.413-0.6989 0.4216-2.644 1.56-4.322 2.53-4.306 2.489-4.868 2.867-4.973 3.345-0.0476 0.2166-0.02566 0.5077 0.04885 0.6468 0.07442 0.1391 0.8017 0.7829 1.616 1.431 0.8417 0.6695 1.506 1.3 1.539 1.461 0.0322 0.1555 0.0803 0.9901 0.1069 1.855 0.0456 1.48 0.0689 1.593 0.3982 1.94l0.3498 0.3677-0.325 0.3753c-0.3118 0.3601-0.325 0.4536-0.325 2.308 0 1.989-0.0307 2.093-0.5351 1.812zm-41.82-1.36c-0.4993-0.2051-10.7-2.152-11.91-2.272-0.3683-0.0367 0.628-0.2293 1.246-0.2409 0.8432-0.0158 1.196-0.1784 1.368-0.6298 0.2163-0.5688-0.1373-1.165-0.9237-1.557-0.7909-0.3942-0.5981-0.5413 0.4687-0.3578 0.3575 0.0615 1.493 0.2046 2.523 0.318s3.013 0.3336 4.408 0.4893c1.99 0.2222 2.589 0.249 2.789 0.1246 0.1396-0.0872 0.2796-0.1328 0.3111-0.1013s0.0407 1.02 0.02043 2.197c-0.03584 2.08-0.04429 2.136-0.3044 2.03zm-46.72-3.228c-0.1925-1.266-0.125-2.232-0.1181-3.588 0.76 0.02553 1.52 0.05107 2.28 0.0766-0.08789 1.129 0.1511 2.412-0.1863 3.479-0.2109 0.2541-1.774 0.2798-1.975 0.0325zm3.439 0.0334c-0.0039-0.0368-0.01895-0.8272-0.03331-1.756l-0.0261-1.69c3.874-0.2389 7.008-0.2583 10.9-0.34v1.544c0 1.321-0.03697 1.589-0.2557 1.86l-0.2557 0.3158-3.858 0.0347c-2.122 0.0191-4.445 0.0492-5.162 0.0669-0.7174 0.0177-1.308 0.0021-1.312-0.0347zm54.25-0.1672c-0.1188-0.2708-0.2393-0.3048-1.202-0.3392l-1.07-0.0383v-6.478l4.396 0.0386c3.665 0.0322 4.446 0.006 4.693-0.1556 0.3239-0.2122 0.7072-0.0834 0.5429 0.1825-0.0552 0.0893-0.0906 1.444-0.07866 3.01 0.01781 2.332-0.01344 2.883-0.1726 3.042-0.1985 0.1985-2.51 0.3706-4.977 0.3706-0.9842 0-1.149 0.0368-1.503 0.3344-0.4823 0.4059-0.4651 0.4049-0.6281 0.0334zm-42.11-1.147c0.105-1.912 0.1804-2.196 0.6149-2.312 0.6482-0.1734 7.937-0.3074 8.036-0.1478 0.04868 0.0788 0.02734 0.181-0.04742 0.2273-0.07913 0.0488-0.136 0.7168-0.136 1.598 0 1.245-0.03931 1.547-0.2211 1.698-0.1752 0.1454-1.062 0.1886-4.269 0.2075l-4.048 0.02389zm9.711 1.089c-0.03362-0.0869-0.0283-0.9296 0.0118-1.873l0.07293-1.715h4.224l0.03691 1.874 0.03691 1.874-2.16-0.000794c-1.536-0.000794-2.178-0.0468-2.221-0.1592zm5.579-0.8966c0-0.5604 0.01881-1.019 0.04176-1.019 0.02296 0 0.2895 0.1197 0.5924 0.266 0.3028 0.1463 1.232 0.4542 2.065 0.6842 1.348 0.3722 2.018 0.6422 1.642 0.6616-1.548 0.08-3.811 0.2684-4.04 0.3365-0.2936 0.0872-0.301 0.0645-0.301-0.9294zm20.07-1.339-0.000071-2.02 1.304-0.004c0.7174-0.0021 1.433-0.0528 1.591-0.1122 0.3088-0.1164 0.2798-0.3289 0.4978 3.656 0.01754 0.3205-0.0095 0.3299-1.052 0.3677-0.5886 0.0213-1.356 0.0601-1.706 0.0862l-0.6354 0.0473-0.000077-2.02zm19.43 1.491c-0.07443-0.092-0.1594-0.9688-0.1888-1.948l-0.05346-1.781 2.106 0.0423c1.501 0.0301 2.156 0.0922 2.279 0.216 0.1189 0.119 0.1883 0.7196 0.2204 1.906l0.04686 1.732h-2.137c-1.549 0-2.175-0.0461-2.273-0.1672zm5.966 0.0847c-0.3308-0.0987-0.3636-0.2807-0.3877-2.151l-0.02209-1.712 1.89 0.01439c2.479 0.01881 2.422-0.0276 2.419 1.979-0.0011 0.8163-0.05769 1.572-0.1257 1.68-0.09616 0.152-0.5045 0.2023-1.837 0.2261-0.9425 0.01691-1.814 0.000529-1.936-0.0359zm15.18-0.01011c-0.631-0.0298-1.148-0.1199-1.226-0.2136-0.074-0.0892-0.1547-0.9609-0.1793-1.937l-0.0448-1.775 2.14 0.0877c1.178 0.0483 2.221 0.1522 2.321 0.2309 0.2406 0.1908 0.1703 3.202-0.0805 3.453-0.182 0.182-1.205 0.2359-2.93 0.1544zm4.341-1.88c0.0329-1.012 0.0677-1.843 0.0773-1.848 0.01-0.004 0.9353 0.01691 2.057 0.048l2.04 0.0566v1.524c0 2.097 0.0442 2.059-2.385 2.059h-1.85zm11.6 1.713c-1.03-0.0408-1.948-0.1228-2.04-0.1823-0.1238-0.0801-0.1672-0.7485-0.1672-2.575v-2.467h1.914c1.326 0 1.981 0.0513 2.131 0.1672 0.1836 0.1415 0.2236 0.5535 0.2597 2.675 0.0276 1.623-0.004 2.499-0.0911 2.482-0.0735-0.0145-0.9765-0.0597-2.007-0.1004zm4.013-0.2485c-0.2207-0.0258-0.4565-0.1004-0.5239-0.1659-0.0674-0.0654-0.1085-1.137-0.0914-2.38 0.0489-3.533-0.0406-3.633-3.25-3.633-1.628 0-1.97-0.0353-2.158-0.2233-0.1977-0.1978-0.2182-0.5541-0.1784-3.11 0.0247-1.588 0.003-2.953-0.0488-3.033-0.1032-0.1613 9.157-0.4043 9.557-0.2508 0.297 0.114 0.3931 0.4172 0.296 0.9344-0.0786 0.419-0.1097 0.4375-0.8832 0.525-1.031 0.1166-1.394 0.2888-1.719 0.816-0.2883 0.4665-0.3377 1.055-0.1336 1.592 0.0892 0.2347 0.0825 0.4493-0.0212 0.677-0.1254 0.2752-0.1096 0.3801 0.0907 0.6014 0.2044 0.2258 0.4134 0.2684 1.325 0.2701 1.32 0.003 1.482 0.0791 1.28 0.6083-0.081 0.2131-0.2188 0.4329-0.3062 0.4885-0.0874 0.0555-0.9276 0.1019-1.867 0.103-1.691 0.0021-1.71 0.005-1.861 0.3359-0.1254 0.2753-0.1101 0.3803 0.0873 0.5985 0.2145 0.237 0.4436 0.2685 2.195 0.3015l1.956 0.0369-0.0276 2.32c-0.0188 1.58-0.0792 2.382-0.1892 2.515-0.1273 0.1534-0.4759 0.1868-1.644 0.1576-0.8156-0.02029-1.663-0.0582-1.884-0.084zm11.37-0.0713c-0.2426-0.1815-0.2744-0.4042-0.3412-2.385-0.0405-1.202-0.1222-2.29-0.1815-2.419-0.0999-0.2167 0.025-0.234 1.679-0.2323 0.9827 0.000794 1.917 0.0367 2.076 0.0793 0.2831 0.0759 0.2885 0.1236 0.2619 2.34-0.0338 2.817 0.0421 2.704-1.857 2.77-1.064 0.0369-1.429 0.003-1.637-0.1527zm5.393 0.0808-0.627-0.0497-0.0418-2.434c-0.0261-1.518 0.009-2.471 0.092-2.533 0.0735-0.0541 0.6906-0.0992 1.371-0.1003 1.031-0.0021 1.237 0.0327 1.237 0.206 0 0.1144 0.1137 0.4605 0.2526 0.7692 0.8422 1.871 1.486 3.505 1.486 3.769 0 0.2039-0.1002 0.3325-0.301 0.3864-0.3093 0.0829-2.354 0.0749-3.47-0.01371zm-81.58-0.68c-0.1104-0.0592-0.7963-0.1476-1.524-0.1964-0.728-0.0487-1.375-0.1206-1.438-0.1596-0.06313-0.039-0.05443-0.1837 0.01937-0.3216 0.2163-0.4041 0.1684-1.946-0.06653-2.141-0.1104-0.0916-0.2006-0.2593-0.2006-0.3726s0.4973-0.8734 1.105-1.689c0.6078-0.8157 1.255-1.709 1.438-1.985 0.2228-0.3358 0.3992-0.4745 0.5335-0.4196 0.1104 0.0451 0.2945 0.1094 0.4092 0.1428 0.1837 0.0534 0.2026 0.4778 0.1584 3.563-0.0276 1.926-0.09137 3.544-0.1417 3.594-0.0503 0.0506-0.1818 0.0435-0.2921-0.01569zm-5.93-0.6519c-1.498-0.1903-1.578-0.2158-1.507-0.4815 0.0414-0.1543 0.07615-0.8976 0.07715-1.652 0.0011-0.9483 0.0496-1.371 0.1567-1.371 0.08517 0 0.4644 0.2388 0.8428 0.5307 0.7754 0.5982 1.506 0.9407 2.008 0.9407 0.3359 0 0.3387 0.01 0.3387 1.137 0 0.8312-0.045 1.132-0.1672 1.117-0.09197-0.01111-0.8791-0.1105-1.749-0.2211zm-4.571-0.4808c-1.167-0.1437-1.203-0.1584-1.176-0.4823 0.1815-2.168 0.299-7.208 0.3325-14.26l0.0408-8.576 1.204-0.2226c0.6622-0.1224 1.363-0.2571 1.558-0.2992l0.3543-0.0766-0.05587 1.652c-0.03074 0.9084-0.1159 4.716-0.1892 8.461-0.1205 6.153-0.1128 6.832 0.07917 7.044 0.1953 0.2158 0.1847 0.287-0.1317 0.8813-0.4303 0.8083-0.4322 1.125-0.0098 1.627 0.3364 0.3998 0.4304 0.6932 0.2221 0.6932-0.2844 0-0.3864 0.6924-0.3209 2.178l0.06919 1.568-0.3865-0.01939c-0.2126-0.01069-0.9283-0.0861-1.59-0.1676zm-5.152-4.361c-0.0024-5.146 0.2737-18.37 0.3861-18.48 0.04641-0.046 0.677-0.1168 1.401-0.1572l1.317-0.0735-0.07982 5.909c-0.1617 11.97-0.2674 16.65-0.3784 16.75-0.01942 0.01839-0.6222 0.0543-1.34 0.0799l-1.304 0.0465zm-16.32 2.809c0-0.0735 0.1354-0.1328 0.301-0.1317 0.2434 0.0021 0.2626 0.0268 0.1003 0.1317-0.2593 0.1676-0.4013 0.1676-0.4013 0zm0.8695-0.2638c0.1471-0.0731 1.351-0.409 2.675-0.7464 5.45-1.389 5.659-1.464 6.601-2.377 0.6931-0.672 3.789-4.262 4.434-5.141 0.1754-0.2391 0.3679-0.4348 0.4277-0.4348 0.1189 0 0.1388 4.861 0.02297 5.618l-0.07158 0.4682-2.318-0.0443c-2.209-0.0422-2.332-0.0311-2.6 0.2372-0.2162 0.2162-0.2508 0.3389-0.149 0.529 0.1609 0.3006 0.9494 0.3872 3.317 0.3642 1.251-0.0122 1.653 0.02601 1.706 0.1622 0.1109 0.2892 0.07809 0.937-0.05146 1.017-0.06587 0.0407-1.887 0.1039-4.046 0.1404-4.801 0.0812-8.497 0.1882-9.478 0.2746-0.5438 0.0479-0.6659 0.0301-0.4682-0.0682zm38.33-0.6c-0.1621-0.1634-2.299-0.2572-2.71-0.119-0.1672 0.0561-0.1982-0.1822-0.2007-1.539-0.0016-0.8829-0.0532-1.683-0.1147-1.778-0.07461-0.1155 0.06351-0.3634 0.4146-0.7443 0.5179-0.5618 0.5281-0.5929 0.6244-1.9 0.05385-0.731 0.09342-2.854 0.08793-4.718-0.01106-3.749-0.08089-4.124-0.8419-4.518-0.3382-0.1749-0.3682-0.2326-0.2161-0.4155 0.1199-0.1442 0.1982-0.8186 0.2436-2.099 0.05668-1.598 0.09751-1.876 0.2675-1.819 0.1104 0.0368 0.8177 0.0669 1.572 0.0669h1.371l0.000529 1.07c0.000264 0.8439 0.05856 1.166 0.2754 1.521l0.275 0.4511-0.3089 0.3298c-0.3056 0.3262-0.3084 0.3596-0.2616 3.094 0.04601 2.685 0.1192 3.177 0.5072 3.406 0.2581 0.1524 0.224 0.3296-0.08225 0.4268-0.4315 0.137-0.5378 0.9038-0.5377 3.881 0.000061 2.247 0.04055 2.887 0.2024 3.197 0.1845 0.3537 0.1815 0.411-0.03377 0.6489-0.1388 0.1533-0.2639 0.562-0.3035 0.9911-0.053 0.5744-0.1021 0.6952-0.2301 0.5662zm35.48 0.02109c-0.0997-0.1614-1.552-1.269-1.928-1.47-0.1559-0.0834-0.2834-0.2341-0.2834-0.3349 0-0.2004 1.516-1.138 5.406-3.345 2.067-1.173 2.55-1.398 2.642-1.234 0.0618 0.1105 0.6993 0.8727 1.416 1.694 0.7172 0.8211 1.515 1.751 1.772 2.068 0.2575 0.3161 0.6939 0.8446 0.9698 1.174 0.8383 1.002 0.7892 1.04-1.341 1.04-1.443 0-1.907 0.0448-2.137 0.2059-0.262 0.1835-0.3273 0.1841-0.6006 0.005-0.2273-0.1489-0.9166-0.2247-2.665-0.2929l-2.358-0.0921-0.3546 0.3546c-0.3949 0.3949-0.4271 0.4085-0.5389 0.2275zm-14.16-0.21c-0.2041-0.1544-0.735-0.1964-2.481-0.1964-1.55 0-2.27-0.0485-2.382-0.1605-0.1004-0.1004-0.1605-0.5991-0.1605-1.331 0-0.644-0.07182-1.328-0.1596-1.521-0.1302-0.2857-0.124-0.3728 0.03342-0.4724 0.3079-0.1948 0.4302-0.1467 0.3554 0.1397-0.09619 0.3678 0.3553 0.8982 0.8588 1.009 0.2287 0.0503 0.863 0.0495 1.409-0.0021 1.424-0.1334 1.666-0.3698 1.752-1.71 0.04949-0.7713 0.1153-1.031 0.2691-1.061 0.1119-0.02191 1.398-0.02249 2.859-0.000793l2.655 0.0388v4.938h-1.988c-1.786 0-2.023 0.0273-2.329 0.2675-0.4001 0.3147-0.3625 0.3113-0.6913 0.0626zm-34.32-0.8168c-1.11-0.7808-1.739-1.38-1.739-1.657 0-0.1201 0.4311-0.7724 0.958-1.45l0.958-1.231 0.3704 0.4493c0.5016 0.6085 2.356 1.877 2.605 1.782 0.1088-0.0417 0.2374-0.179 0.2857-0.305 0.1101-0.2869-1.03-1.344-2.101-1.948-0.4046-0.2281-0.7604-0.4347-0.7906-0.459-0.03019-0.02429 0.04277-0.1521 0.1621-0.284 0.1194-0.1319 0.311-0.4647 0.4258-0.7396 0.2529-0.6052 0.09179-1.029-0.3913-1.029-0.2452 0-0.519 0.2762-1.208 1.218-0.4898 0.6698-0.923 1.185-0.9628 1.146-0.03973-0.0397-0.0036-2.45 0.08014-5.356 0.08384-2.906 0.145-6.537 0.1359-8.068l-0.01654-2.784 1.105-0.2192c0.608-0.1205 1.372-0.2557 1.698-0.3004 0.5272-0.0723 0.5818-0.0555 0.4964 0.1523-0.05275 0.1284-0.1213 1.678-0.1523 3.444l-0.05638 3.21-0.5589 0.0982c-0.3192 0.056-0.7045 0.2437-0.8985 0.4375-0.3097 0.3095-0.3436 0.4554-0.3851 1.658-0.04282 1.242-0.02786 1.331 0.2551 1.529l0.3005 0.2105-0.7233 0.7148c-1.159 1.146-1.334 1.731-0.5721 1.922 0.2947 0.074 0.4175 0.0232 0.6506-0.2691l0.2873-0.3603 0.1549 0.34 0.1549 0.34h1.936c1.958 0 2.528-0.1085 2.682-0.5108 0.04454-0.1161-0.0368-0.3233-0.1852-0.4717-0.2077-0.2077-0.4392-0.263-1.075-0.257-0.7535 0.007-0.9975-0.1006-0.6769-0.2988 0.2572-0.159 0.1304-0.581-0.2778-0.9245-0.342-0.2878-0.5463-0.3463-1.209-0.3463-0.7466 0-0.7883-0.0163-0.6586-0.2587 0.07616-0.1423 0.1385-0.6555 0.1385-1.14 0-0.8078 0.02695-0.8918 0.3214-1.004 0.1768-0.0672 1.336-0.1339 2.575-0.1482l2.254-0.02601-0.003 0.9876c-0.0021 0.5432-0.03186 2.531-0.06688 4.418-0.06003 3.235-0.04914 3.446 0.1912 3.712l0.2548 0.2819h-0.5587c-0.4661 0-0.5839-0.0554-0.711-0.3344-0.0838-0.1839-0.6544-0.6992-1.268-1.145-1.189-0.8637-1.243-0.9432-1.06-1.55 0.09536-0.3151-0.207-0.7164-0.5398-0.7164-0.3439 0-0.8539 0.6289-0.8539 1.053 0 0.6372 0.1033 0.7737 1.284 1.696 0.6501 0.5076 1.155 1.008 1.2 1.189 0.09916 0.3951-0.1354 0.8485-1.045 2.02-0.3972 0.5117-0.9166 1.216-1.154 1.566-0.5596 0.8232-0.8719 0.8255-2.024 0.015zm1.992-0.4997c0.2444-0.2945 0.05224-0.5578-0.9671-1.325-1.12-0.8428-1.432-1.019-1.661-0.9371-0.5098 0.1828 0.119 1.052 1.492 2.062 0.5738 0.4221 0.9039 0.4802 1.136 0.2001zm-32.65-0.46c-0.7897-0.4196-1.422-0.8011-1.405-0.8478 0.01718-0.0466 0.6214-0.7021 1.343-1.457 1.067-1.117 1.304-1.437 1.271-1.721l-0.04058-0.3493 1.806-0.0415c0.9932-0.02281 2.182-0.003 2.642 0.044 0.8236 0.0843 0.8332 0.0899 0.6384 0.3759-0.1088 0.1597-1.117 1.299-2.24 2.531-1.375 1.509-2.13 2.239-2.31 2.234-0.1477-0.004-0.9146-0.3495-1.704-0.7692zm111.9-0.27c-0.4548-0.2061-0.9292-0.5962-0.8605-0.7075 0.0405-0.0655 0.2356-0.1194 0.4336-0.1196 0.3886-0.000529 1.195-0.4361 1.448-0.7822 0.2382-0.3258 0.3427-1.433 0.1891-2.003-0.0754-0.2799-0.293-0.6555-0.4835-0.8347-0.3434-0.3228-0.3736-0.3261-3.452-0.3696l-3.105-0.044v-0.9259c0-0.9536 0.0393-1.045 0.3268-0.7587 0.1294 0.1289 1.291 0.1596 5.071 0.1339 2.697-0.01831 5.002-0.0647 5.123-0.1031 0.168-0.0533 0.2896 0.1127 0.5143 0.7021 0.1619 0.4246 0.7501 1.838 1.307 3.14 0.5571 1.302 0.9771 2.461 0.9334 2.575-0.069 0.1798-0.5474 0.2056-3.662 0.1974-1.97-0.005-3.673-0.0503-3.783-0.1003zm-57.98-0.43c-0.1343-0.0783-1.847-0.1165-4.319-0.0963-3.519 0.0289-4.115 0.005-4.228-0.167-0.07919-0.1208-0.1173-1.407-0.09582-3.233l0.03569-3.033 4.682 0.02299 4.682 0.02291v1.405c0 0.7725-0.06005 1.495-0.1334 1.605-0.0734 0.1104-0.1547 0.9681-0.1806 1.906-0.02593 0.938-0.0863 1.704-0.1341 1.701-0.04778-0.0021-0.187-0.0625-0.3094-0.1339zm1.758-0.8041c-0.2076-0.3879-0.1255-1.712 0.1244-2.007 0.1172-0.1382 1.387-0.8005 2.822-1.472 1.435-0.6712 2.666-1.275 2.736-1.343 0.06989-0.0673 0.207-0.1224 0.3047-0.1224 0.1379 0 0.16 0.2019 0.09877 0.9029-0.1327 1.52-0.04444 1.406-1.784 2.293-0.8736 0.4454-2.168 1.079-2.876 1.407-1.226 0.5692-1.294 0.5853-1.425 0.3402zm-59.21-0.5452c-1.198-0.629-1.785-1.067-1.785-1.33 0-0.1315 0.1402-0.4092 0.3117-0.6172 0.1714-0.208 0.3479-0.4778 0.3923-0.5996 0.07199-0.1978 0.1351-0.202 0.5913-0.0393 0.3256 0.1161 1.132 0.1843 2.226 0.188 1.416 0.005 1.708 0.0392 1.672 0.1971-0.06898 0.305-1.835 2.203-2.249 2.417-0.3518 0.1819-0.4282 0.1677-1.159-0.2159zm64.35-0.1436c-0.05416-0.0876-0.04267-0.1794 0.02553-0.204 0.06821-0.02461 0.425-0.2087 0.7929-0.4092 0.525-0.2861 0.7455-0.5158 1.025-1.068l0.3564-0.703 0.09244 0.9865c0.1344 1.434 0.03939 1.557-1.203 1.557-0.6221 0-1.027-0.0593-1.089-0.1593zm44.96-0.2322c-2.286-0.0655-2.668-0.1058-2.625-0.2773 0.0275-0.1104 0.072-0.3709 0.0989-0.579s0.0832-0.4338 0.1251-0.5016c0.1082-0.175 7.9-0.1606 8.229 0.01519 0.298 0.1595 0.3488 0.7656 0.0915 1.094-0.2141 0.2732-2.181 0.3559-5.919 0.2488zm-67.82-0.38c-0.497-0.0466-0.5012-0.0515-0.2288-0.2732 0.2559-0.2083 0.2879-0.4442 0.4144-3.054 0.1484-3.061 0.1176-5.581-0.07313-5.988-0.1142-0.2439-0.07114-0.2515 0.9356-0.1664 0.668 0.0565 1.13 0.1644 1.26 0.294 0.1745 0.1746 0.2046 0.7904 0.2046 4.179 0 2.186-0.04585 4.138-0.1019 4.339-0.05605 0.2002-0.2065 0.4176-0.3344 0.4832-0.291 0.1492-1.407 0.2496-2.076 0.1869zm27.9-2.003-1.639-0.0421-0.01805-1.568c-0.03443-2.986-0.05139-3.189-0.299-3.566-0.1314-0.2005-0.4429-0.4498-0.6924-0.554-0.5162-0.2156-1.623-0.2499-2.109-0.0652-0.2814 0.107-0.385 0.0587-0.7444-0.3473l-0.4175-0.4716-0.0131-2.228c-0.02453-4.166 0.000529-5.438 0.1073-5.416 0.05855 0.0123 1.611 0.355 3.451 0.7616 4.05 0.8955 5.422 1.156 6.087 1.156h0.506l-0.01918 2.737c-0.01638 2.338-0.05107 2.769-0.2379 2.956-0.188 0.188-0.5655 0.2164-2.686 0.202-2.318-0.0158-2.489 0.000259-2.825 0.264-0.4197 0.3301-0.4622 0.7307-0.09817 0.9255 0.1541 0.0825 1.364 0.1385 2.993 0.1385h2.734l0.03665 2.04c0.04737 2.638 0.04707 2.646-0.1066 2.8-0.1991 0.1991-1.096 0.3741-1.769 0.3454-0.3311-0.0141-1.339-0.0447-2.241-0.0679zm-9.955-1.237c-0.03564-0.6312-0.124-1.007-0.2714-1.154-0.2022-0.2022-0.1968-0.2597 0.07123-0.7696 0.272-0.5172 0.2885-0.7184 0.2691-3.277-0.01931-2.551-0.03883-2.75-0.3046-3.11-0.2646-0.3579-0.2701-0.4112-0.07972-0.7793 0.1653-0.3196 0.2043-0.9635 0.2043-3.369 0-2.831-0.01344-2.989-0.279-3.271-0.225-0.2395-0.2509-0.3495-0.1338-0.5684 0.2311-0.4318 0.1708-0.8828-0.1892-1.413-0.4191-0.6175-0.4171-0.6683 0.03342-0.871 0.2023-0.091 0.9546-0.5587 1.672-1.039 0.7171-0.4806 1.386-0.8423 1.486-0.8038 0.149 0.0572 0.1704 0.6191 0.1174 3.082-0.0616 2.863-0.05128 3.034 0.2093 3.456 0.2419 0.3921 0.2517 0.4749 0.08371 0.704-0.2737 0.3732-0.2713 7.871 0.0024 8.366 0.156 0.2818 0.1553 0.3861-0.0045 0.6956-0.242 0.468-0.266 3.323-0.02998 3.559 0.08706 0.087 0.1322 0.1828 0.1003 0.2128-0.09956 0.0937-2.7 1.288-2.805 1.288-0.05452 0-0.1229-0.4212-0.152-0.936zm-58.42 0.2887c-0.2517-0.0487-0.4794-0.1547-0.5061-0.2356-0.02669-0.0809 0.7473-1.164 1.72-2.408 0.9727-1.243 1.855-2.432 1.96-2.641 0.1623-0.3223 0.2453-0.3659 0.5434-0.2853 0.1935 0.0523 1.985 0.1231 3.982 0.1573 3.587 0.0615 3.633 0.0589 3.899-0.2268 0.2542-0.2728 0.2919-0.2774 0.6717-0.081 0.2465 0.1274 0.7969 0.2157 1.421 0.2278 0.56 0.01079 1.05 0.0707 1.088 0.1329 0.03849 0.0623-0.5495 0.8384-1.307 1.725-0.7571 0.8863-1.669 1.957-2.026 2.378-1.14 1.346-0.9163 1.299-6.306 1.324-2.575 0.01191-4.888-0.0182-5.139-0.0669zm65.25-0.8766c-0.1893-0.253-0.1939-0.3278-0.03347-0.5472 0.2394-0.3273 0.2356-0.7614-0.01183-1.354-0.1678-0.4015-0.2537-0.4666-0.5685-0.4304-0.2993 0.0344-0.3795 0.1189-0.4158 0.4378-0.02471 0.2173-0.1301 0.5166-0.2341 0.6652-0.1718 0.2452-0.1891 0.1946-0.1891-0.552 0-0.8141 0.0045-0.8234 0.4489-0.9702 0.3012-0.0994 0.5613-0.1054 0.7905-0.01831 0.3098 0.1178 0.3499 0.2206 0.4319 1.108 0.0497 0.5378 0.07022 1.197 0.0456 1.466-0.04444 0.4846-0.04641 0.486-0.264 0.1951zm-2.955-1.319c0.04838-1.4 0.1399-1.973 0.3149-1.973 0.08628 0 0.1027 0.1625 0.04348 0.4318-0.1497 0.6814-0.09931 1.783 0.09589 2.098 0.1513 0.244 0.1479 0.307-0.02228 0.4152-0.4136 0.2631-0.4703 0.1354-0.432-0.9718zm45.67 0.331-0.4423-0.3434-4.775 0.02619c-2.645 0.0145-4.855-0.0273-4.956-0.0938-0.2081-0.138-0.2282-0.5359-0.1846-3.644l0.0312-2.219 4.84-0.0868c4.439-0.0796 4.884-0.1085 5.371-0.3495 0.5268-0.2606 0.5338-0.2607 0.8629-0.002 0.3148 0.2477 0.5741 0.261 5.078 0.261 4.459 0 4.742 0.0142 4.674 0.2341-0.0396 0.1288-0.2258 0.5953-0.4137 1.037-0.4418 1.038-0.4338 1.494 0.054 3.079 0.3053 0.9917 0.3657 1.35 0.2512 1.488-0.1215 0.1464-0.9922 0.1818-4.465 0.1818-2.373 0-4.505 0.0381-4.737 0.0846-0.2432 0.0487-0.492 0.2133-0.5852 0.3874l-0.1622 0.3027zm-74.16-0.41c0-0.4075 1.223-0.5728 1.68-0.2271 0.2444 0.1849 0.2322 0.1967-0.2085 0.2021-0.2575 0.003-0.6939 0.043-0.9698 0.0886-0.3249 0.0537-0.5016 0.0313-0.5016-0.0637zm14.31-0.691c-0.2467-0.2467-0.2677-0.4472-0.2694-2.575-0.0011-1.269-0.03812-2.443-0.0825-2.608-0.07576-0.2827-0.04009-0.301 0.5871-0.301 0.3672 0 0.8408 0.0345 1.052 0.0769l0.3846 0.0769v5.598l-0.7023 0.0001c-0.524 0.000072-0.7702-0.0679-0.9698-0.2674zm2.855-0.0305c0.04439-0.1768 0.08966-1.446 0.1006-2.821l0.01998-2.499 2.759-0.002c1.518-0.0009 2.88-0.0342 3.027-0.0737 0.2597-0.0698 0.2686 0.002 0.3049 2.457 0.05088 3.444 0.3533 3.157-3.387 3.215l-2.905 0.0451 0.08067-0.3214zm30.93-3.019c-0.0341-0.0341 0.00026-0.1782 0.0763-0.3203 0.08-0.1496 0.1252-0.9988 0.1073-2.017l-0.0309-1.759 0.6571-0.2629c0.3614-0.1446 1.44-0.6816 2.396-1.194 3.373-1.805 5.225-2.816 5.97-3.257 0.4143-0.2456 0.8206-0.4466 0.9029-0.4466 0.1071 0 0.1497 1.124 0.1497 3.946v3.946h-0.4699c-0.4404 0-4.805 0.6294-8.192 1.181-0.8278 0.1349-1.533 0.2174-1.567 0.1833zm-74.18-0.6971c-1.655-0.0432-3.025-0.0905-3.043-0.1054-0.1263-0.1019 0.1231-0.4721 1.322-1.963 0.8187-1.018 1.39-1.856 1.443-2.115l0.08778-0.4301 1.734-0.0386c2.114-0.0471 2.388 0.003 2.252 0.4109-0.05453 0.1631-0.08765 1.214-0.0736 2.336l0.02554 2.04-0.3687-0.0284c-0.2028-0.01561-1.723-0.0637-3.379-0.1068zm5.351-0.1743c-0.3312-0.1701-0.3341-0.1869-0.2974-1.724 0.02034-0.8538-0.01758-1.795-0.08427-2.092-0.09013-0.4011-0.07821-0.5562 0.04642-0.604 0.3009-0.1155 7.088-0.0773 7.28 0.0409 0.1425 0.088-0.05786 0.377-0.8538 1.232-2.595 2.786-2.991 3.151-3.515 3.238-0.8451 0.1397-2.223 0.0917-2.576-0.0897zm23.21-4.376v-3.482l0.4682-0.1221c0.5402-0.1408 2.565-0.427 2.621-0.3706 0.02088 0.0209 0.05667 1.674 0.07956 3.673 0.04844 4.23 0.2672 3.778-1.831 3.781l-1.338 0.002v-3.482zm4.384 3.388c-0.2718-0.0525-0.2818-0.0835-0.1129-0.3496 0.195-0.3072 0.3106-4.532 0.4071-14.87 0.04237-4.54 0.1194-5.418 0.4755-5.418 0.07905 0 0.3296 0.09612 0.5568 0.2136l0.4131 0.2136c0.02 6.426-0.21 12.86-0.18 19.28l0.01 1.037-0.6119-0.0182c-0.3365-0.01-0.7461-0.0441-0.9101-0.0759zm57.02-1.946c-0.037-0.1655-0.0834-1.279-0.1029-2.475l-0.0354-2.174 2.345 0.00013c1.933 0.00014 2.398-0.0374 2.65-0.2138 0.2812-0.1969 0.3254-0.196 0.5554 0.0122 0.2171 0.1965 0.5232 0.2202 2.331 0.1805 2.031-0.0446 2.079-0.0392 1.993 0.2219-0.0485 0.1472-0.093 1.188-0.0989 2.312-0.008 1.531-0.0547 2.072-0.1858 2.153-0.2198 0.1358-3.864 0.2834-7 0.2834-2.363 0-2.384-0.003-2.451-0.301zm11.03 0.002c0.00001-0.137 0.1837-0.309 0.4478-0.4194 0.2463-0.1029 0.5698-0.3896 0.7188-0.6372 0.6776-1.125 1.375-2.561 1.375-2.83l-0.00003-0.2956 2.909 0.0194c2.214 0.0147 3.045-0.0265 3.477-0.1723 0.4104-0.1385 0.6397-0.1532 0.8272-0.0528 0.1427 0.0764 0.9024 0.1388 1.688 0.1388 1.328 0 1.424 0.0177 1.364 0.2489-0.0846 0.3235-2.373 4.163-2.487 4.173-0.048 0.004-2.39 0.0193-5.204 0.0335-4.779 0.024-5.117 0.0104-5.117-0.2066zm-60.49-0.0686c-0.1672-0.1894-0.2188-0.7583-0.27-2.976-0.03479-1.508-0.1099-2.852-0.1668-2.987-0.0993-0.2346 0.08555-0.2427 4.563-0.2006l4.667 0.0439-0.04217 3.007c-0.02598 1.853-0.0964 3.072-0.1836 3.177-0.1089 0.1313-1.085 0.1704-4.251 0.1704-3.746 0-4.128-0.0207-4.316-0.2341zm32.77-1.906c-0.3343-0.2943-0.6703-0.5351-0.7467-0.5351-0.3579 0-0.1848-0.3981 1.152-2.651 2.861-4.821 3.416-5.804 3.68-6.519 0.1475-0.4005 0.3126-0.7281 0.3668-0.7281s0.5122 0.3784 1.018 0.8408c0.5056 0.4625 1.401 1.255 1.989 1.762 2.052 1.766 3.177 2.87 3.108 3.05-0.0599 0.1561-0.9321 0.6503-4.312 2.443-0.4414 0.2341-1.835 0.9766-3.098 1.65-1.262 0.6733-2.352 1.224-2.422 1.224s-0.4008-0.2408-0.7352-0.5351zm27.65-0.3128c-0.0461-0.2456-0.0718-0.5316-0.0571-0.6354 0.0959-0.6786-0.0283-1.483-0.2657-1.72-0.2331-0.2331-0.2415-0.3004-0.079-0.6354 0.1786-0.3684 0.3288-2.065 0.336-3.796l0.004-0.8798 0.3679 0.0522c0.2554 0.0362 0.9684-0.2365 2.333-0.8927 1.802-0.8666 2.249-1.043 2.249-0.8891 0 0.0307-0.1233 0.3435-0.274 0.6951s-0.2561 0.8231-0.2341 1.048c0.0306 0.314-0.0374 0.4586-0.2945 0.6253-0.2055 0.1333-0.6626 0.8741-1.186 1.922-0.7393 1.481-0.8433 1.78-0.7884 2.266 0.057 0.5061 0.0262 0.5822-0.3159 0.7785-0.254 0.1458-0.5665 0.5953-0.947 1.363-0.3123 0.6297-0.6119 1.145-0.6657 1.145s-0.1356-0.201-0.1817-0.4466zm-35.11-0.8359c0.000137-0.2315-0.2266-1.034-0.8941-3.165-0.06869-0.2193 0.1755-0.2341 3.866-0.2341 2.167 0 3.979 0.0399 4.028 0.0885 0.226 0.226-1.788 3.356-2.222 3.453-0.1634 0.0366-1.305 0.0824-2.538 0.1019-2.194 0.0346-2.241 0.0295-2.241-0.2438zm-30.01-0.0552c-0.01426-0.0368-0.0036-0.7725 0.02392-1.635l0.0499-1.568 1.493 0.0817c0.8214 0.0449 1.5 0.0884 1.508 0.0965 0.0077 0.008-0.01426 0.7071-0.04889 1.553l-0.06291 1.538h-1.469c-0.8077 0-1.48-0.0301-1.494-0.0669zm-19.95-1.368c-0.041-0.1068-0.05679-0.6705-0.03509-1.253 0.03231-0.8672 0.07568-1.047 0.2401-0.9974 0.1104 0.0335 1.043 0.0937 2.073 0.1338l1.873 0.0728-1.739 0.9024c-0.9564 0.4963-1.874 0.9998-2.038 1.119-0.2568 0.1856-0.3099 0.1888-0.3739 0.0221zm3.379-0.2343c0.2376-0.1448 0.7191-0.4095 1.07-0.5882 0.7083-0.3605 1.163-0.7986 1.301-1.254 0.2449-0.8077-0.4277-1.237-1.937-1.237-0.5451 0-0.9161-0.0525-0.8723-0.1234 0.04191-0.0679 0.512-0.2223 1.045-0.3432 1.374-0.312 8.64-2.211 11.9-3.112 0.2078-0.0574 0.2341 0.0475 0.2341 0.9335 0 0.5489-0.03888 1.633-0.08639 2.41l-0.08639 1.412-0.4152 0.003c-0.441 0.003-1.162 0.1189-3.425 0.5524-0.7725 0.148-2.428 0.4496-3.679 0.6703s-2.936 0.5221-3.746 0.6698c-1.816 0.3314-1.838 0.3315-1.307 0.008zm85.55-0.6369c-0.2391-0.0286-0.4344-0.0934-0.434-0.1439 0.00053-0.0505 0.3315-0.7419 0.7357-1.536 0.4042-0.7945 0.735-1.566 0.735-1.714 0-0.2421 0.0654-0.263 0.6354-0.2035 0.3495 0.0364 1.377 0.0706 2.283 0.0758 1.516 0.009 1.642 0.0284 1.572 0.2472-0.0415 0.1308-0.0803 0.8381-0.0862 1.572-0.006 0.7337-0.0357 1.424-0.0662 1.535-0.0466 0.1685-0.4467 0.2023-2.498 0.2108-1.343 0.005-2.638-0.0133-2.877-0.0419zm6.82-0.1977c-0.0997-0.1201-0.1537-0.7514-0.1501-1.755l0.005-1.567 2.364 0.0365c2.347 0.0362 2.364 0.0386 2.407 0.3418 0.0522 0.368-1.128 2.532-1.515 2.777-0.1471 0.0934-0.8725 0.2111-1.612 0.2617-1.075 0.0735-1.376 0.0543-1.5-0.0957zm-21.33-0.3345-0.3679-0.0557-0.0199-1.63c-0.0459-3.761-0.0947-4.889-0.2214-5.125-0.1282-0.2394-0.0539-0.2484 1.759-0.2127 1.041 0.0205 2.062 0.0506 2.269 0.0669l0.376 0.0296 0.0653 3.369c0.0632 3.258 0.0565 3.374-0.2 3.511-0.2516 0.1346-2.859 0.1675-3.661 0.0462zm5.819 0.004-0.7023-0.0564-0.0158-2.1c-0.009-1.155-0.0362-2.687-0.0611-3.404l-0.0453-1.304 1.432-0.0108c0.7877-0.006 1.745-0.0266 2.128-0.046 0.5169-0.0262 0.7157 0.016 0.7725 0.1641 0.0421 0.1096 0.06 1.602 0.0397 3.317-0.0268 2.279-0.0819 3.162-0.2045 3.285-0.1752 0.1751-2.026 0.2611-3.344 0.1554zm-60.2-3.788 0.03661-2.207h2.007c1.104 0 2.112 0.0433 2.241 0.0961 0.2053 0.0843 0.2341 0.3013 0.2341 1.764 0 0.9172 0.06188 1.83 0.1375 2.029 0.07563 0.1989 0.1144 0.3848 0.08605 0.4132-0.02831 0.0283-1.115 0.0651-2.415 0.0818l-2.363 0.0304zm5.937 0.0188 0.01416-2.226 0.7542-0.0401c0.4835-0.0257 0.9106 0.0349 1.19 0.1688 0.4939 0.2368 1.804 1.265 3.378 2.65 1.304 1.147 1.56 1.426 1.46 1.588-0.04525 0.0732-1.475 0.1169-3.444 0.1052l-3.366-0.0199zm31.5 2.083c-0.1192-0.1193-1.19-0.1619-4.068-0.1619-2.148 0-4.111 0.0301-4.361 0.0669l-0.4549 0.0669-0.5677-1.891c-0.3123-1.04-0.6058-2.064-0.6524-2.276l-0.08465-0.3854 6.257-0.0403c5.241-0.0337 6.299-0.009 6.513 0.1496 0.244 0.1815 0.2006 0.2857-0.9783 2.347-0.6785 1.187-1.28 2.186-1.338 2.222-0.0571 0.0353-0.1767-0.009-0.2656-0.0977zm-88.78-0.5634c-0.1836-0.2801-0.2041-0.542-0.1251-1.596 0.05198-0.6933 0.1746-1.37 0.2724-1.504 0.1623-0.2222 0.4676-0.2471 3.478-0.2837 2.542-0.0309 3.348-0.000503 3.507 0.1319 0.1734 0.1439 0.1947 0.4118 0.1302 1.636-0.04515 0.8558-0.02305 1.565 0.05322 1.707 0.1247 0.233-7.096 0.2437-7.096 0.2437zm8.332 0.1679c0.0595-0.092 0.1124-0.5284 0.1175-0.9698 0.0052-0.4414 0.0202-1.207 0.03347-1.702l0.02414-0.8991 4.732 0.0447c2.602 0.0246 4.8 0.0866 4.883 0.1378 0.09754 0.0603 0.1508 0.6306 0.1508 1.616 0 0.8707 0.05726 1.558 0.1338 1.605 0.4636 0.2865-0.2564 0.3344-5.024 0.3344-4.095 0-5.136-0.0345-5.05-0.1672zm23.05-2.118c0-1.616 0.02841-1.846 0.2531-2.049 0.2761-0.2498 2.249-1.146 2.529-1.148 0.1354-0.000979 0.1675 0.4447 0.1468 2.045l-0.02638 2.047-1.451 0.463-1.451 0.463zm4.078-0.007c0.03524-0.3212 0.101-1.289 0.1462-2.15 0.05385-1.027 0.1415-1.615 0.2547-1.709 0.2791-0.2317 2.587-1.185 2.669-1.103 0.0414 0.04146 0.07532 1.109 0.07532 2.372v2.297l-1.371 0.3726c-0.7541 0.205-1.476 0.4024-1.605 0.4387-0.2032 0.0575-0.2253-0.01-0.1696-0.5179zm86.8-0.1871c-0.0793-0.2067 0.4819-1.272 0.9311-1.768 0.2664-0.294 0.338-0.301 3.092-0.3005 4.17 0.000503 7.033 0.139 7.033 0.3399 0 0.0906-0.183 0.5558-0.4068 1.034l-0.4068 0.8692-5.084 0.009c-4.312 0.008-5.096-0.0201-5.158-0.1837zm-82.45-2.731v-2.267l0.4347-0.3199c0.4598-0.3383 2.598-1.254 2.697-1.154 0.03205 0.03205 0.07269 1.198 0.09026 2.591l0.03195 2.533-1.527 0.4403c-0.8397 0.2422-1.572 0.4414-1.627 0.4427-0.05518 0.002-0.1003-1.018-0.1003-2.265zm4.526-0.7604c-0.04307-3.376 0.000132-3.549 0.9912-3.981 1.117-0.4869 2.094-0.8075 2.185-0.7171 0.04581 0.04581 0.03969 1.368-0.01365 2.939l-0.09694 2.856-1.221 0.2289c-0.6714 0.1259-1.356 0.2664-1.522 0.3121-0.3001 0.0829-0.301 0.078-0.3229-1.638zm70.35-0.2574c-0.041-0.041-2.133-0.0862-4.648-0.1003-4.401-0.0247-4.581-0.0358-4.776-0.2932-0.2987-0.3952-0.1964-6.125 0.1149-6.436 0.2745-0.2745 1.103-0.3042 5.493-0.1968 3.096 0.07574 3.608 0.1178 3.803 0.3121 0.1944 0.1945 0.2327 0.6648 0.2853 3.507 0.0561 3.034 0.0169 3.497-0.272 3.208z" style="stroke-width:.1338"/>
</svg>
